<svg class="rich-terminal" viewBox="0 0 982 635.5999999999999" xmlns="http://www.w3.org/2000/svg">
    <!-- Generated with Rich https://www.textualize.io -->
    <style>

    @font-face {
        font-family: "Fira Code";
        src: local("FiraCode-Regular"),
                url("https://cdnjs.cloudflare.com/ajax/libs/firacode/6.2.0/woff2/FiraCode-Regular.woff2") format("woff2"),
                url("https://cdnjs.cloudflare.com/ajax/libs/firacode/6.2.0/woff/FiraCode-Regular.woff") format("woff");
        font-style: normal;
        font-weight: 400;
    }
    @font-face {
        font-family: "Fira Code";
        src: local("FiraCode-Bold"),
                url("https://cdnjs.cloudflare.com/ajax/libs/firacode/6.2.0/woff2/FiraCode-Bold.woff2") format("woff2"),
                url("https://cdnjs.cloudflare.com/ajax/libs/firacode/6.2.0/woff/FiraCode-Bold.woff") format("woff");
        font-style: bold;
        font-weight: 700;
    }

    .terminal-tui-compact-matrix {
        font-family: Fira Code, monospace;
        font-size: 20px;
        line-height: 24.4px;
        font-variant-east-asian: full-width;
    }

    .terminal-tui-compact-title {
        font-size: 18px;
        font-weight: bold;
        font-family: arial;
    }

    .terminal-tui-compact-r1 { fill: #c5c8c6 }
.terminal-tui-compact-r2 { fill: #e0e0e0 }
.terminal-tui-compact-r3 { fill: #c6c6c6 }
.terminal-tui-compact-r4 { fill: #777777 }
.terminal-tui-compact-r5 { fill: #b5b5b5;font-weight: bold }
.terminal-tui-compact-r6 { fill: #141414 }
.terminal-tui-compact-r7 { fill: #f5f5f5 }
.terminal-tui-compact-r8 { fill: #bdbdbd;font-weight: bold }
    </style>

    <defs>
    <clipPath id="terminal-tui-compact-clip-terminal">
      <rect x="0" y="0" width="962.8" height="584.5999999999999" />
    </clipPath>
    <clipPath id="terminal-tui-compact-line-0">
    <rect x="0" y="1.5" width="963.8" height="24.65"/>
            </clipPath>
<clipPath id="terminal-tui-compact-line-1">
    <rect x="0" y="25.9" width="963.8" height="24.65"/>
            </clipPath>
<clipPath id="terminal-tui-compact-line-2">
    <rect x="0" y="50.3" width="963.8" height="24.65"/>
            </clipPath>
<clipPath id="terminal-tui-compact-line-3">
    <rect x="0" y="74.7" width="963.8" height="24.65"/>
            </clipPath>
<clipPath id="terminal-tui-compact-line-4">
    <rect x="0" y="99.1" width="963.8" height="24.65"/>
            </clipPath>
<clipPath id="terminal-tui-compact-line-5">
    <rect x="0" y="123.5" width="963.8" height="24.65"/>
            </clipPath>
<clipPath id="terminal-tui-compact-line-6">
    <rect x="0" y="147.9" width="963.8" height="24.65"/>
            </clipPath>
<clipPath id="terminal-tui-compact-line-7">
    <rect x="0" y="172.3" width="963.8" height="24.65"/>
            </clipPath>
<clipPath id="terminal-tui-compact-line-8">
    <rect x="0" y="196.7" width="963.8" height="24.65"/>
            </clipPath>
<clipPath id="terminal-tui-compact-line-9">
    <rect x="0" y="221.1" width="963.8" height="24.65"/>
            </clipPath>
<clipPath id="terminal-tui-compact-line-10">
    <rect x="0" y="245.5" width="963.8" height="24.65"/>
            </clipPath>
<clipPath id="terminal-tui-compact-line-11">
    <rect x="0" y="269.9" width="963.8" height="24.65"/>
            </clipPath>
<clipPath id="terminal-tui-compact-line-12">
    <rect x="0" y="294.3" width="963.8" height="24.65"/>
            </clipPath>
<clipPath id="terminal-tui-compact-line-13">
    <rect x="0" y="318.7" width="963.8" height="24.65"/>
            </clipPath>
<clipPath id="terminal-tui-compact-line-14">
    <rect x="0" y="343.1" width="963.8" height="24.65"/>
            </clipPath>
<clipPath id="terminal-tui-compact-line-15">
    <rect x="0" y="367.5" width="963.8" height="24.65"/>
            </clipPath>
<clipPath id="terminal-tui-compact-line-16">
    <rect x="0" y="391.9" width="963.8" height="24.65"/>
            </clipPath>
<clipPath id="terminal-tui-compact-line-17">
    <rect x="0" y="416.3" width="963.8" height="24.65"/>
            </clipPath>
<clipPath id="terminal-tui-compact-line-18">
    <rect x="0" y="440.7" width="963.8" height="24.65"/>
            </clipPath>
<clipPath id="terminal-tui-compact-line-19">
    <rect x="0" y="465.1" width="963.8" height="24.65"/>
            </clipPath>
<clipPath id="terminal-tui-compact-line-20">
    <rect x="0" y="489.5" width="963.8" height="24.65"/>
            </clipPath>
<clipPath id="terminal-tui-compact-line-21">
    <rect x="0" y="513.9" width="963.8" height="24.65"/>
            </clipPath>
<clipPath id="terminal-tui-compact-line-22">
    <rect x="0" y="538.3" width="963.8" height="24.65"/>
            </clipPath>
    </defs>

    <rect fill="#292929" stroke="rgba(255,255,255,0.35)" stroke-width="1" x="1" y="1" width="980" height="633.6" rx="8"/><text class="terminal-tui-compact-title" fill="#c5c8c6" text-anchor="middle" x="490" y="27">sdsctl&#160;TUI&#160;—&#160;Demonstration&#160;data</text>
            <g transform="translate(26,22)">
            <circle cx="0" cy="0" r="7" fill="#ff5f57"/>
            <circle cx="22" cy="0" r="7" fill="#febc2e"/>
            <circle cx="44" cy="0" r="7" fill="#28c840"/>
            </g>

    <g transform="translate(9, 41)" clip-path="url(#terminal-tui-compact-clip-terminal)">
    <rect fill="#2d2d2d" x="0" y="1.5" width="12.2" height="24.65" shape-rendering="crispEdges"/><rect fill="#2d2d2d" x="12.2" y="1.5" width="12.2" height="24.65" shape-rendering="crispEdges"/><rect fill="#2d2d2d" x="24.4" y="1.5" width="61" height="24.65" shape-rendering="crispEdges"/><rect fill="#2d2d2d" x="85.4" y="1.5" width="12.2" height="24.65" shape-rendering="crispEdges"/><rect fill="#2d2d2d" x="97.6" y="1.5" width="280.6" height="24.65" shape-rendering="crispEdges"/><rect fill="#2d2d2d" x="378.2" y="1.5" width="170.8" height="24.65" shape-rendering="crispEdges"/><rect fill="#2d2d2d" x="549" y="1.5" width="292.8" height="24.65" shape-rendering="crispEdges"/><rect fill="#353535" x="841.8" y="1.5" width="12.2" height="24.65" shape-rendering="crispEdges"/><rect fill="#353535" x="854" y="1.5" width="97.6" height="24.65" shape-rendering="crispEdges"/><rect fill="#353535" x="951.6" y="1.5" width="12.2" height="24.65" shape-rendering="crispEdges"/><rect fill="#232323" x="0" y="25.9" width="12.2" height="24.65" shape-rendering="crispEdges"/><rect fill="#232323" x="12.2" y="25.9" width="146.4" height="24.65" shape-rendering="crispEdges"/><rect fill="#232323" x="158.6" y="25.9" width="292.8" height="24.65" shape-rendering="crispEdges"/><rect fill="#232323" x="451.4" y="25.9" width="488" height="24.65" shape-rendering="crispEdges"/><rect fill="#282828" x="939.4" y="25.9" width="24.4" height="24.65" shape-rendering="crispEdges"/><rect fill="#232323" x="0" y="50.3" width="12.2" height="24.65" shape-rendering="crispEdges"/><rect fill="#232323" x="12.2" y="50.3" width="122" height="24.65" shape-rendering="crispEdges"/><rect fill="#232323" x="134.2" y="50.3" width="244" height="24.65" shape-rendering="crispEdges"/><rect fill="#232323" x="378.2" y="50.3" width="561.2" height="24.65" shape-rendering="crispEdges"/><rect fill="#282828" x="939.4" y="50.3" width="24.4" height="24.65" shape-rendering="crispEdges"/><rect fill="#232323" x="0" y="74.7" width="12.2" height="24.65" shape-rendering="crispEdges"/><rect fill="#232323" x="12.2" y="74.7" width="97.6" height="24.65" shape-rendering="crispEdges"/><rect fill="#232323" x="109.8" y="74.7" width="195.2" height="24.65" shape-rendering="crispEdges"/><rect fill="#232323" x="305" y="74.7" width="634.4" height="24.65" shape-rendering="crispEdges"/><rect fill="#282828" x="939.4" y="74.7" width="24.4" height="24.65" shape-rendering="crispEdges"/><rect fill="#232323" x="0" y="99.1" width="12.2" height="24.65" shape-rendering="crispEdges"/><rect fill="#232323" x="12.2" y="99.1" width="85.4" height="24.65" shape-rendering="crispEdges"/><rect fill="#232323" x="97.6" y="99.1" width="73.2" height="24.65" shape-rendering="crispEdges"/><rect fill="#232323" x="170.8" y="99.1" width="36.6" height="24.65" shape-rendering="crispEdges"/><rect fill="#232323" x="207.4" y="99.1" width="122" height="24.65" shape-rendering="crispEdges"/><rect fill="#232323" x="329.4" y="99.1" width="268.4" height="24.65" shape-rendering="crispEdges"/><rect fill="#232323" x="597.8" y="99.1" width="341.6" height="24.65" shape-rendering="crispEdges"/><rect fill="#282828" x="939.4" y="99.1" width="24.4" height="24.65" shape-rendering="crispEdges"/><rect fill="#232323" x="0" y="123.5" width="12.2" height="24.65" shape-rendering="crispEdges"/><rect fill="#232323" x="12.2" y="123.5" width="97.6" height="24.65" shape-rendering="crispEdges"/><rect fill="#232323" x="109.8" y="123.5" width="183" height="24.65" shape-rendering="crispEdges"/><rect fill="#232323" x="292.8" y="123.5" width="646.6" height="24.65" shape-rendering="crispEdges"/><rect fill="#282828" x="939.4" y="123.5" width="24.4" height="24.65" shape-rendering="crispEdges"/><rect fill="#232323" x="0" y="147.9" width="12.2" height="24.65" shape-rendering="crispEdges"/><rect fill="#232323" x="12.2" y="147.9" width="146.4" height="24.65" shape-rendering="crispEdges"/><rect fill="#232323" x="158.6" y="147.9" width="158.6" height="24.65" shape-rendering="crispEdges"/><rect fill="#232323" x="317.2" y="147.9" width="622.2" height="24.65" shape-rendering="crispEdges"/><rect fill="#282828" x="939.4" y="147.9" width="24.4" height="24.65" shape-rendering="crispEdges"/><rect fill="#232323" x="0" y="172.3" width="12.2" height="24.65" shape-rendering="crispEdges"/><rect fill="#232323" x="12.2" y="172.3" width="73.2" height="24.65" shape-rendering="crispEdges"/><rect fill="#232323" x="85.4" y="172.3" width="207.4" height="24.65" shape-rendering="crispEdges"/><rect fill="#232323" x="292.8" y="172.3" width="646.6" height="24.65" shape-rendering="crispEdges"/><rect fill="#282828" x="939.4" y="172.3" width="24.4" height="24.65" shape-rendering="crispEdges"/><rect fill="#232323" x="0" y="196.7" width="12.2" height="24.65" shape-rendering="crispEdges"/><rect fill="#232323" x="12.2" y="196.7" width="109.8" height="24.65" shape-rendering="crispEdges"/><rect fill="#232323" x="122" y="196.7" width="183" height="24.65" shape-rendering="crispEdges"/><rect fill="#232323" x="305" y="196.7" width="634.4" height="24.65" shape-rendering="crispEdges"/><rect fill="#282828" x="939.4" y="196.7" width="24.4" height="24.65" shape-rendering="crispEdges"/><rect fill="#232323" x="0" y="221.1" width="12.2" height="24.65" shape-rendering="crispEdges"/><rect fill="#232323" x="12.2" y="221.1" width="134.2" height="24.65" shape-rendering="crispEdges"/><rect fill="#232323" x="146.4" y="221.1" width="158.6" height="24.65" shape-rendering="crispEdges"/><rect fill="#232323" x="305" y="221.1" width="634.4" height="24.65" shape-rendering="crispEdges"/><rect fill="#282828" x="939.4" y="221.1" width="24.4" height="24.65" shape-rendering="crispEdges"/><rect fill="#232323" x="0" y="245.5" width="12.2" height="24.65" shape-rendering="crispEdges"/><rect fill="#232323" x="12.2" y="245.5" width="146.4" height="24.65" shape-rendering="crispEdges"/><rect fill="#232323" x="158.6" y="245.5" width="36.6" height="24.65" shape-rendering="crispEdges"/><rect fill="#232323" x="195.2" y="245.5" width="744.2" height="24.65" shape-rendering="crispEdges"/><rect fill="#282828" x="939.4" y="245.5" width="24.4" height="24.65" shape-rendering="crispEdges"/><rect fill="#232323" x="0" y="269.9" width="12.2" height="24.65" shape-rendering="crispEdges"/><rect fill="#232323" x="12.2" y="269.9" width="109.8" height="24.65" shape-rendering="crispEdges"/><rect fill="#232323" x="122" y="269.9" width="97.6" height="24.65" shape-rendering="crispEdges"/><rect fill="#232323" x="219.6" y="269.9" width="719.8" height="24.65" shape-rendering="crispEdges"/><rect fill="#282828" x="939.4" y="269.9" width="24.4" height="24.65" shape-rendering="crispEdges"/><rect fill="#232323" x="0" y="294.3" width="12.2" height="24.65" shape-rendering="crispEdges"/><rect fill="#232323" x="12.2" y="294.3" width="122" height="24.65" shape-rendering="crispEdges"/><rect fill="#232323" x="134.2" y="294.3" width="109.8" height="24.65" shape-rendering="crispEdges"/><rect fill="#232323" x="244" y="294.3" width="695.4" height="24.65" shape-rendering="crispEdges"/><rect fill="#282828" x="939.4" y="294.3" width="24.4" height="24.65" shape-rendering="crispEdges"/><rect fill="#232323" x="0" y="318.7" width="12.2" height="24.65" shape-rendering="crispEdges"/><rect fill="#232323" x="12.2" y="318.7" width="97.6" height="24.65" shape-rendering="crispEdges"/><rect fill="#232323" x="109.8" y="318.7" width="122" height="24.65" shape-rendering="crispEdges"/><rect fill="#232323" x="231.8" y="318.7" width="707.6" height="24.65" shape-rendering="crispEdges"/><rect fill="#282828" x="939.4" y="318.7" width="24.4" height="24.65" shape-rendering="crispEdges"/><rect fill="#232323" x="0" y="343.1" width="12.2" height="24.65" shape-rendering="crispEdges"/><rect fill="#232323" x="12.2" y="343.1" width="73.2" height="24.65" shape-rendering="crispEdges"/><rect fill="#232323" x="85.4" y="343.1" width="48.8" height="24.65" shape-rendering="crispEdges"/><rect fill="#232323" x="134.2" y="343.1" width="805.2" height="24.65" shape-rendering="crispEdges"/><rect fill="#282828" x="939.4" y="343.1" width="24.4" height="24.65" shape-rendering="crispEdges"/><rect fill="#232323" x="0" y="367.5" width="12.2" height="24.65" shape-rendering="crispEdges"/><rect fill="#232323" x="12.2" y="367.5" width="73.2" height="24.65" shape-rendering="crispEdges"/><rect fill="#232323" x="85.4" y="367.5" width="85.4" height="24.65" shape-rendering="crispEdges"/><rect fill="#232323" x="170.8" y="367.5" width="768.6" height="24.65" shape-rendering="crispEdges"/><rect fill="#282828" x="939.4" y="367.5" width="24.4" height="24.65" shape-rendering="crispEdges"/><rect fill="#232323" x="0" y="391.9" width="12.2" height="24.65" shape-rendering="crispEdges"/><rect fill="#232323" x="12.2" y="391.9" width="231.8" height="24.65" shape-rendering="crispEdges"/><rect fill="#232323" x="244" y="391.9" width="36.6" height="24.65" shape-rendering="crispEdges"/><rect fill="#232323" x="280.6" y="391.9" width="658.8" height="24.65" shape-rendering="crispEdges"/><rect fill="#282828" x="939.4" y="391.9" width="24.4" height="24.65" shape-rendering="crispEdges"/><rect fill="#232323" x="0" y="416.3" width="12.2" height="24.65" shape-rendering="crispEdges"/><rect fill="#232323" x="12.2" y="416.3" width="73.2" height="24.65" shape-rendering="crispEdges"/><rect fill="#232323" x="85.4" y="416.3" width="219.6" height="24.65" shape-rendering="crispEdges"/><rect fill="#232323" x="305" y="416.3" width="634.4" height="24.65" shape-rendering="crispEdges"/><rect fill="#282828" x="939.4" y="416.3" width="24.4" height="24.65" shape-rendering="crispEdges"/><rect fill="#232323" x="0" y="440.7" width="12.2" height="24.65" shape-rendering="crispEdges"/><rect fill="#232323" x="12.2" y="440.7" width="305" height="24.65" shape-rendering="crispEdges"/><rect fill="#232323" x="317.2" y="440.7" width="170.8" height="24.65" shape-rendering="crispEdges"/><rect fill="#232323" x="488" y="440.7" width="451.4" height="24.65" shape-rendering="crispEdges"/><rect fill="#282828" x="939.4" y="440.7" width="24.4" height="24.65" shape-rendering="crispEdges"/><rect fill="#232323" x="0" y="465.1" width="12.2" height="24.65" shape-rendering="crispEdges"/><rect fill="#232323" x="12.2" y="465.1" width="109.8" height="24.65" shape-rendering="crispEdges"/><rect fill="#232323" x="122" y="465.1" width="366" height="24.65" shape-rendering="crispEdges"/><rect fill="#232323" x="488" y="465.1" width="451.4" height="24.65" shape-rendering="crispEdges"/><rect fill="#000000" x="939.4" y="465.1" width="24.4" height="24.65" shape-rendering="crispEdges"/><rect fill="#232323" x="0" y="489.5" width="12.2" height="24.65" shape-rendering="crispEdges"/><rect fill="#232323" x="12.2" y="489.5" width="85.4" height="24.65" shape-rendering="crispEdges"/><rect fill="#232323" x="97.6" y="489.5" width="427" height="24.65" shape-rendering="crispEdges"/><rect fill="#232323" x="524.6" y="489.5" width="414.8" height="24.65" shape-rendering="crispEdges"/><rect fill="#000000" x="939.4" y="489.5" width="24.4" height="24.65" shape-rendering="crispEdges"/><rect fill="#232323" x="0" y="513.9" width="12.2" height="24.65" shape-rendering="crispEdges"/><rect fill="#232323" x="12.2" y="513.9" width="97.6" height="24.65" shape-rendering="crispEdges"/><rect fill="#232323" x="109.8" y="513.9" width="219.6" height="24.65" shape-rendering="crispEdges"/><rect fill="#232323" x="329.4" y="513.9" width="610" height="24.65" shape-rendering="crispEdges"/><rect fill="#000000" x="939.4" y="513.9" width="24.4" height="24.65" shape-rendering="crispEdges"/><rect fill="#232323" x="0" y="538.3" width="12.2" height="24.65" shape-rendering="crispEdges"/><rect fill="#232323" x="12.2" y="538.3" width="61" height="24.65" shape-rendering="crispEdges"/><rect fill="#232323" x="73.2" y="538.3" width="305" height="24.65" shape-rendering="crispEdges"/><rect fill="#232323" x="378.2" y="538.3" width="561.2" height="24.65" shape-rendering="crispEdges"/><rect fill="#000000" x="939.4" y="538.3" width="24.4" height="24.65" shape-rendering="crispEdges"/><rect fill="#232323" x="0" y="562.7" width="12.2" height="24.65" shape-rendering="crispEdges"/><rect fill="#232323" x="12.2" y="562.7" width="109.8" height="24.65" shape-rendering="crispEdges"/><rect fill="#232323" x="122" y="562.7" width="719.8" height="24.65" shape-rendering="crispEdges"/><rect fill="#232323" x="841.8" y="562.7" width="109.8" height="24.65" shape-rendering="crispEdges"/><rect fill="#232323" x="951.6" y="562.7" width="12.2" height="24.65" shape-rendering="crispEdges"/>
    <g class="terminal-tui-compact-matrix">
    <text class="terminal-tui-compact-r2" x="12.2" y="20" textLength="12.2" clip-path="url(#terminal-tui-compact-line-0)">⭘</text><text class="terminal-tui-compact-r2" x="378.2" y="20" textLength="170.8" clip-path="url(#terminal-tui-compact-line-0)">sdsctl&#160;v0.29.2</text><text class="terminal-tui-compact-r3" x="854" y="20" textLength="97.6" clip-path="url(#terminal-tui-compact-line-0)">23:15:00</text><text class="terminal-tui-compact-r1" x="963.8" y="20" textLength="12.2" clip-path="url(#terminal-tui-compact-line-0)">
</text><text class="terminal-tui-compact-r4" x="12.2" y="44.4" textLength="146.4" clip-path="url(#terminal-tui-compact-line-1)">Connection:&#160;</text><text class="terminal-tui-compact-r5" x="158.6" y="44.4" textLength="292.8" clip-path="url(#terminal-tui-compact-line-1)">CONNECTED&#160;since&#160;23:15:00</text><text class="terminal-tui-compact-r1" x="963.8" y="44.4" textLength="12.2" clip-path="url(#terminal-tui-compact-line-1)">
</text><text class="terminal-tui-compact-r4" x="12.2" y="68.8" textLength="122" clip-path="url(#terminal-tui-compact-line-2)">Endpoint:&#160;</text><text class="terminal-tui-compact-r7" x="134.2" y="68.8" textLength="244" clip-path="url(#terminal-tui-compact-line-2)">sdsctl-remote-daemon</text><text class="terminal-tui-compact-r1" x="963.8" y="68.8" textLength="12.2" clip-path="url(#terminal-tui-compact-line-2)">
</text><text class="terminal-tui-compact-r4" x="12.2" y="93.2" textLength="97.6" clip-path="url(#terminal-tui-compact-line-3)">Target:&#160;</text><text class="terminal-tui-compact-r7" x="109.8" y="93.2" textLength="195.2" clip-path="url(#terminal-tui-compact-line-3)">192.0.2.25:50443</text><text class="terminal-tui-compact-r1" x="963.8" y="93.2" textLength="12.2" clip-path="url(#terminal-tui-compact-line-3)">
</text><text class="terminal-tui-compact-r4" x="12.2" y="117.6" textLength="85.4" clip-path="url(#terminal-tui-compact-line-4)">Model:&#160;</text><text class="terminal-tui-compact-r7" x="97.6" y="117.6" textLength="73.2" clip-path="url(#terminal-tui-compact-line-4)">SDS200</text><text class="terminal-tui-compact-r7" x="170.8" y="117.6" textLength="36.6" clip-path="url(#terminal-tui-compact-line-4)">&#160;|&#160;</text><text class="terminal-tui-compact-r4" x="207.4" y="117.6" textLength="122" clip-path="url(#terminal-tui-compact-line-4)">Firmware:&#160;</text><text class="terminal-tui-compact-r7" x="329.4" y="117.6" textLength="268.4" clip-path="url(#terminal-tui-compact-line-4)">Version&#160;1.26.01&#160;(demo)</text><text class="terminal-tui-compact-r1" x="963.8" y="117.6" textLength="12.2" clip-path="url(#terminal-tui-compact-line-4)">
</text><text class="terminal-tui-compact-r4" x="12.2" y="142" textLength="97.6" clip-path="url(#terminal-tui-compact-line-5)">System:&#160;</text><text class="terminal-tui-compact-r7" x="109.8" y="142" textLength="183" clip-path="url(#terminal-tui-compact-line-5)">Demo&#160;County&#160;P25</text><text class="terminal-tui-compact-r1" x="963.8" y="142" textLength="12.2" clip-path="url(#terminal-tui-compact-line-5)">
</text><text class="terminal-tui-compact-r4" x="12.2" y="166.4" textLength="146.4" clip-path="url(#terminal-tui-compact-line-6)">Department:&#160;</text><text class="terminal-tui-compact-r7" x="158.6" y="166.4" textLength="158.6" clip-path="url(#terminal-tui-compact-line-6)">Public&#160;Safety</text><text class="terminal-tui-compact-r1" x="963.8" y="166.4" textLength="12.2" clip-path="url(#terminal-tui-compact-line-6)">
</text><text class="terminal-tui-compact-r4" x="12.2" y="190.8" textLength="73.2" clip-path="url(#terminal-tui-compact-line-7)">Site:&#160;</text><text class="terminal-tui-compact-r7" x="85.4" y="190.8" textLength="207.4" clip-path="url(#terminal-tui-compact-line-7)">Central&#160;Simulcast</text><text class="terminal-tui-compact-r1" x="963.8" y="190.8" textLength="12.2" clip-path="url(#terminal-tui-compact-line-7)">
</text><text class="terminal-tui-compact-r4" x="12.2" y="215.2" textLength="109.8" clip-path="url(#terminal-tui-compact-line-8)">Channel:&#160;</text><text class="terminal-tui-compact-r7" x="122" y="215.2" textLength="183" clip-path="url(#terminal-tui-compact-line-8)">Fire&#160;Dispatch&#160;1</text><text class="terminal-tui-compact-r1" x="963.8" y="215.2" textLength="12.2" clip-path="url(#terminal-tui-compact-line-8)">
</text><text class="terminal-tui-compact-r4" x="12.2" y="239.6" textLength="134.2" clip-path="url(#terminal-tui-compact-line-9)">Frequency:&#160;</text><text class="terminal-tui-compact-r7" x="146.4" y="239.6" textLength="158.6" clip-path="url(#terminal-tui-compact-line-9)">769.456250MHz</text><text class="terminal-tui-compact-r1" x="963.8" y="239.6" textLength="12.2" clip-path="url(#terminal-tui-compact-line-9)">
</text><text class="terminal-tui-compact-r4" x="12.2" y="264" textLength="146.4" clip-path="url(#terminal-tui-compact-line-10)">Modulation:&#160;</text><text class="terminal-tui-compact-r7" x="158.6" y="264" textLength="36.6" clip-path="url(#terminal-tui-compact-line-10)">NFM</text><text class="terminal-tui-compact-r1" x="963.8" y="264" textLength="12.2" clip-path="url(#terminal-tui-compact-line-10)">
</text><text class="terminal-tui-compact-r4" x="12.2" y="288.4" textLength="109.8" clip-path="url(#terminal-tui-compact-line-11)">Service:&#160;</text><text class="terminal-tui-compact-r7" x="122" y="288.4" textLength="97.6" clip-path="url(#terminal-tui-compact-line-11)">Dispatch</text><text class="terminal-tui-compact-r1" x="963.8" y="288.4" textLength="12.2" clip-path="url(#terminal-tui-compact-line-11)">
</text><text class="terminal-tui-compact-r4" x="12.2" y="312.8" textLength="122" clip-path="url(#terminal-tui-compact-line-12)">Activity:&#160;</text><text class="terminal-tui-compact-r8" x="134.2" y="312.8" textLength="109.8" clip-path="url(#terminal-tui-compact-line-12)">RECEIVING</text><text class="terminal-tui-compact-r1" x="963.8" y="312.8" textLength="12.2" clip-path="url(#terminal-tui-compact-line-12)">
</text><text class="terminal-tui-compact-r4" x="12.2" y="337.2" textLength="97.6" clip-path="url(#terminal-tui-compact-line-13)">Signal:&#160;</text><text class="terminal-tui-compact-r5" x="109.8" y="337.2" textLength="122" clip-path="url(#terminal-tui-compact-line-13)">STRONG&#160;(5)</text><text class="terminal-tui-compact-r1" x="963.8" y="337.2" textLength="12.2" clip-path="url(#terminal-tui-compact-line-13)">
</text><text class="terminal-tui-compact-r4" x="12.2" y="361.6" textLength="73.2" clip-path="url(#terminal-tui-compact-line-14)">Hold:&#160;</text><text class="terminal-tui-compact-r7" x="85.4" y="361.6" textLength="48.8" clip-path="url(#terminal-tui-compact-line-14)">NONE</text><text class="terminal-tui-compact-r1" x="963.8" y="361.6" textLength="12.2" clip-path="url(#terminal-tui-compact-line-14)">
</text><text class="terminal-tui-compact-r4" x="12.2" y="386" textLength="73.2" clip-path="url(#terminal-tui-compact-line-15)">Mute:&#160;</text><text class="terminal-tui-compact-r7" x="85.4" y="386" textLength="85.4" clip-path="url(#terminal-tui-compact-line-15)">UNMUTED</text><text class="terminal-tui-compact-r1" x="963.8" y="386" textLength="12.2" clip-path="url(#terminal-tui-compact-line-15)">
</text><text class="terminal-tui-compact-r4" x="12.2" y="410.4" textLength="231.8" clip-path="url(#terminal-tui-compact-line-16)">Scanner&#160;recording:&#160;</text><text class="terminal-tui-compact-r7" x="244" y="410.4" textLength="36.6" clip-path="url(#terminal-tui-compact-line-16)">OFF</text><text class="terminal-tui-compact-r1" x="963.8" y="410.4" textLength="12.2" clip-path="url(#terminal-tui-compact-line-16)">
</text><text class="terminal-tui-compact-r4" x="12.2" y="434.8" textLength="73.2" clip-path="url(#terminal-tui-compact-line-17)">Live:&#160;</text><text class="terminal-tui-compact-r7" x="85.4" y="434.8" textLength="219.6" clip-path="url(#terminal-tui-compact-line-17)">ON&#160;|&#160;device&#160;ACTIVE</text><text class="terminal-tui-compact-r1" x="963.8" y="434.8" textLength="12.2" clip-path="url(#terminal-tui-compact-line-17)">
</text><text class="terminal-tui-compact-r4" x="12.2" y="459.2" textLength="305" clip-path="url(#terminal-tui-compact-line-18)">Saved&#160;/&#160;audio&#160;recording:&#160;</text><text class="terminal-tui-compact-r7" x="317.2" y="459.2" textLength="170.8" clip-path="url(#terminal-tui-compact-line-18)">STOPPED&#160;|&#160;IDLE</text><text class="terminal-tui-compact-r1" x="963.8" y="459.2" textLength="12.2" clip-path="url(#terminal-tui-compact-line-18)">
</text><text class="terminal-tui-compact-r4" x="12.2" y="483.6" textLength="109.8" clip-path="url(#terminal-tui-compact-line-19)">Session:&#160;</text><text class="terminal-tui-compact-r7" x="122" y="483.6" textLength="366" clip-path="url(#terminal-tui-compact-line-19)">0.0s&#160;|&#160;0&#160;packets&#160;|&#160;0&#160;completed</text><text class="terminal-tui-compact-r1" x="963.8" y="483.6" textLength="12.2" clip-path="url(#terminal-tui-compact-line-19)">
</text><text class="terminal-tui-compact-r4" x="12.2" y="508" textLength="85.4" clip-path="url(#terminal-tui-compact-line-20)">Audio:&#160;</text><text class="terminal-tui-compact-r7" x="97.6" y="508" textLength="427" clip-path="url(#terminal-tui-compact-line-20)">Live&#160;playback&#160;active&#160;|&#160;loss/dup&#160;0/0</text><text class="terminal-tui-compact-r1" x="963.8" y="508" textLength="12.2" clip-path="url(#terminal-tui-compact-line-20)">
</text><text class="terminal-tui-compact-r4" x="12.2" y="532.4" textLength="97.6" clip-path="url(#terminal-tui-compact-line-21)">Health:&#160;</text><text class="terminal-tui-compact-r7" x="109.8" y="532.4" textLength="219.6" clip-path="url(#terminal-tui-compact-line-21)">AVAILABLE&#160;/&#160;NORMAL</text><text class="terminal-tui-compact-r1" x="963.8" y="532.4" textLength="12.2" clip-path="url(#terminal-tui-compact-line-21)">
</text><text class="terminal-tui-compact-r4" x="12.2" y="556.8" textLength="61" clip-path="url(#terminal-tui-compact-line-22)">PSI:&#160;</text><text class="terminal-tui-compact-r7" x="73.2" y="556.8" textLength="305" clip-path="url(#terminal-tui-compact-line-22)">LIVE&#160;PSI&#160;|&#160;recovery&#160;0/0/0</text><text class="terminal-tui-compact-r1" x="963.8" y="556.8" textLength="12.2" clip-path="url(#terminal-tui-compact-line-22)">
</text><text class="terminal-tui-compact-r7" x="122" y="581.2" textLength="719.8" clip-path="url(#terminal-tui-compact-line-23)">Q&#160;Quit&#160;|&#160;A&#160;Audio&#160;|&#160;R&#160;Record&#160;|&#160;C&#160;Reconnect&#160;|&#160;G&#160;Logs&#160;|&#160;?&#160;Keys</text>
    </g>
    </g>
</svg>
